#!OML:ASF H:\Not Pregnant\Project 1\Capture day 1\Session 1\non-pregnant.ASF
:FULLY-SPECIFIED
:DEGREES
898
root 6.25942 16.0435 19.0373 13.1258 -1.33103 -1.03725
lowerback 2.8429 4.558 0.10248
upperback -7.19396 6.09064 -1.0325
thorax -9.04611 2.94386 -1.79092
lowerneck 22.9944 -12.7963 -28.8661
upperneck -22.4368 -20.3212 46.2869
head -0.54645 -13.5444 24.9027
rclavicle -3.23646e-015 -7.95139e-015
rhumerus -17.1921 14.9763 -92.9341
rradius 62.055
rwrist 29.6993
rhand 5.23115 1.04874
rfingers 7.12502
rthumb 30.5904 -26.43
lclavicle -3.23646e-015 -7.95139e-015
lhumerus -57.3961 -26.4001 104.527
lradius 79.2273
lwrist 57.9511
lhand -29.6458 -6.85525
lfingers 7.12502
lthumb -2.97537 23.1037
rfemur -34.6372 1.3439 15.1485
rtibia 54.5626
rfoot -15.4104 0.829084
rtoes -33.2753
lfemur -27.7739 -9.26589 -19.4008
ltibia 32.7898
lfoot -16.8599 -12.3299
ltoes -12.8278
899
root 6.24937 16.0518 19.0811 13.0481 -1.33454 -1.00289
lowerback 2.90824 4.5608 -0.0563167
upperback -7.12959 6.0823 -1.02542
thorax -9.03193 2.95106 -1.69822
lowerneck 22.9171 -12.7876 -28.8676
upperneck -22.4451 -20.2895 46.3437
head -0.533845 -13.5302 24.9474
rclavicle -3.99227e-014 3.97569e-015
rhumerus -18.404 15.4187 -93.3611
rradius 61.8062
rwrist 29.6671
rhand 6.10036 1.46478
rfingers 7.12502
rthumb 31.4189 -25.856
lclavicle -3.99227e-014 3.97569e-015
lhumerus -57.4166 -26.6451 104.54
lradius 79.1839
lwrist 58.0284
lhand -29.569 -6.83156
lfingers 7.12502
lthumb -2.90123 23.1284
rfemur -35.3718 2.07756 14.9012
rtibia 53.2666
rfoot -15.4859 0.0485647
rtoes -33.0581
lfemur -27.2944 -9.18987 -19.4564
ltibia 32.3988
lfoot -16.901 -12.4297
ltoes -12.686
900
root 6.23879 16.0612 19.1251 12.9719 -1.31303 -0.962197
lowerback 2.97016 4.55441 -0.219825
upperback -7.06774 6.06127 -1.01629
thorax -9.01949 2.95235 -1.59932
lowerneck 22.8424 -12.7766 -28.8691
upperneck -22.4588 -20.254 46.3981
head -0.52549 -13.5138 24.9937
rclavicle 1.48608e-013 9.0447e-015
rhumerus -19.598 15.774 -93.7888
rradius 61.6004
rwrist 29.5619
rhand 6.94707 1.81051
rfingers 7.12502
rthumb 32.2253 -25.35
lclavicle 1.48608e-013 9.0447e-015
lhumerus -57.4414 -26.8409 104.547
lradius 79.1777
lwrist 58.1247
lhand -29.488 -6.80956
lfingers 7.12502
lthumb -2.82297 23.1515
rfemur -36.0316 2.79226 14.6306
rtibia 51.84
rfoot -15.4852 -0.656107
rtoes -32.6939
lfemur -26.8016 -9.11451 -19.5145
ltibia 31.9727
lfoot -16.928 -12.5577
ltoes -12.541
901
root 6.22813 16.0706 19.1689 12.8949 -1.25905 -0.900979
lowerback 3.03626 4.53239 -0.394274
upperback -7.01207 6.01804 -1.00956
thorax -9.01749 2.94315 -1.49536
lowerneck 22.7715 -12.7636 -28.8726
upperneck -22.4646 -20.219 46.4462
head -0.516828 -13.4968 25.0358
rclavicle -9.5841e-014 -9.24349e-015
rhumerus -20.7749 16.0752 -94.2243
rradius 61.4274
rwrist 29.2855
rhand 7.71518 2.03095
rfingers 7.12502
rthumb 32.9562 -24.9785
lclavicle -9.5841e-014 -9.24349e-015
lhumerus -57.47 -26.9743 104.541
lradius 79.2067
lwrist 58.2263
lhand -29.3964 -6.77999
lfingers 7.12502
lthumb -2.73452 23.1822
rfemur -36.612 3.46375 14.3251
rtibia 50.3065
rfoot -15.4188 -1.23396
rtoes -32.2511
lfemur -26.3001 -9.05375 -19.5908
ltibia 31.5197
lfoot -16.936 -12.7144
ltoes -12.3711
902
root 6.21705 16.0802 19.2133 12.8167 -1.1607 -0.834607
lowerback 3.08985 4.493 -0.563554
upperback -6.95444 5.95187 -1.00037
thorax -9.00568 2.92256 -1.3878
lowerneck 22.7003 -12.7447 -28.8754
upperneck -22.4727 -20.1744 46.4919
head -0.513781 -13.4744 25.0818
rclavicle 7.59439e-015 -1.83876e-014
rhumerus -21.9205 16.3274 -94.6616
rradius 61.2839
rwrist 28.8117
rhand 8.38241 2.11947
rfingers 7.12502
rthumb 33.5905 -24.7543
lclavicle 7.59439e-015 -1.83876e-014
lhumerus -57.4954 -27.059 104.526
lradius 79.2626
lwrist 58.3293
lhand -29.2995 -6.76515
lfingers 7.12502
lthumb -2.64093 23.1982
rfemur -37.1101 4.08705 14.0058
rtibia 48.688
rfoot -15.296 -1.64942
rtoes -31.7658
lfemur -25.79 -9.01652 -19.6653
ltibia 31.0469
lfoot -16.9331 -12.8954
ltoes -12.1872
903
root 6.20519 16.0895 19.2587 12.7437 -1.03016 -0.76249
lowerback 3.12869 4.44103 -0.732173
upperback -6.90194 5.86874 -0.992727
thorax -8.99034 2.89359 -1.27919
lowerneck 22.6389 -12.7197 -28.8757
upperneck -22.4738 -20.1237 46.534
head -0.515094 -13.4491 25.1302
rclavicle 2.63953e-015 -2.22639e-014
rhumerus -23.0395 16.5351 -95.1069
rradius 61.1578
rwrist 28.1344
rhand 8.91647 2.07829
rfingers 7.12502
rthumb 34.0979 -24.6837
lclavicle 2.63953e-015 -2.22639e-014
lhumerus -57.5182 -27.1013 104.498
lradius 79.3345
lwrist 58.4324
lhand -29.1908 -6.77969
lfingers 7.12502
lthumb -2.53593 23.185
rfemur -37.5397 4.66193 13.677
rtibia 47.0116
rfoot -15.1216 -1.87787
rtoes -31.3037
lfemur -25.2851 -8.99652 -19.738
ltibia 30.5696
lfoot -16.9176 -13.099
ltoes -11.9458
904
root 6.1927 16.0982 19.3054 12.6727 -0.86009 -0.684986
lowerback 3.13877 4.37435 -0.8952
upperback -6.84361 5.76638 -0.985964
thorax -8.95055 2.85506 -1.16936
lowerneck 22.5798 -12.6896 -28.8747
upperneck -22.4785 -20.065 46.5785
head -0.521222 -13.4201 25.1862
rclavicle 3.74332e-014 1.0635e-014
rhumerus -24.1115 16.7054 -95.5483
rradius 61.0372
rwrist 27.3014
rhand 9.31136 1.93047
rfingers 7.12502
rthumb 34.4729 -24.7471
lclavicle 3.74332e-014 1.0635e-014
lhumerus -57.5142 -27.1168 104.454
lradius 79.4115
lwrist 58.5339
lhand -29.0878 -6.81333
lfingers 7.12502
lthumb -2.43655 23.1525
rfemur -37.8973 5.16979 13.3491
rtibia 45.3014
rfoot -14.9136 -1.90944
rtoes -30.9563
lfemur -24.786 -9.01581 -19.8068
ltibia 30.1013
lfoot -16.9061 -13.3007
ltoes -11.6917
905
root 6.17928 16.1062 19.3535 12.6163 -0.668466 -0.612649
lowerback 3.10869 4.30102 -1.04959
upperback -6.78854 5.65624 -0.980403
thorax -8.88911 2.81235 -1.06122
lowerneck 22.5386 -12.6526 -28.8723
upperneck -22.4857 -19.9995 46.6241
head -0.534949 -13.3892 25.2523
rclavicle 3.34048e-014 1.15295e-014
rhumerus -25.1471 16.8302 -95.9867
rradius 60.9135
rwrist 26.3915
rhand 9.57828 1.71172
rfingers 7.12502
rthumb 34.7262 -24.9078
lclavicle 3.34048e-014 1.15295e-014
lhumerus -57.5073 -27.0997 104.399
lradius 79.5007
lwrist 58.6179
lhand -28.9901 -6.86177
lfingers 7.12502
lthumb -2.34216 23.1051
rfemur -38.2072 5.62031 13.0357
rtibia 43.5816
rfoot -14.6647 -1.72513
rtoes -30.7009
lfemur -24.3134 -9.04004 -19.8639
ltibia 29.6593
lfoot -16.9056 -13.5144
ltoes -11.4082
906
root 6.16518 16.1129 19.4032 12.5681 -0.453157 -0.547105
lowerback 3.04119 4.22093 -1.18677
upperback -6.73384 5.53894 -0.976699
thorax -8.80354 2.76509 -0.960503
lowerneck 22.5102 -12.6137 -28.87
upperneck -22.491 -19.9351 46.669
head -0.550685 -13.3597 25.3212
rclavicle 7.91481e-014 -3.97569e-016
rhumerus -26.1306 16.9119 -96.4136
rradius 60.7659
rwrist 25.466
rhand 9.71675 1.46712
rfingers 7.12502
rthumb 34.8576 -25.1221
lclavicle 7.91481e-014 -3.97569e-016
lhumerus -57.4822 -27.064 104.334
lradius 79.5831
lwrist 58.6888
lhand -28.9055 -6.91028
lfingers 7.12502
lthumb -2.2604 23.0575
rfemur -38.4635 6.00104 12.7459
rtibia 41.8736
rfoot -14.385 -1.31215
rtoes -30.5013
lfemur -23.8644 -9.06263 -19.9105
ltibia 29.2526
lfoot -16.9274 -13.7459
ltoes -11.1063
907
root 6.15084 16.1179 19.453 12.5276 -0.21727 -0.489764
lowerback 2.94805 4.13049 -1.30366
upperback -6.6816 5.40999 -0.972718
thorax -8.70305 2.71078 -0.867555
lowerneck 22.487 -12.5768 -28.8684
upperneck -22.4783 -19.879 46.7031
head -0.561445 -13.3333 25.3767
rclavicle -7.98315e-014 -1.41137e-014
rhumerus -27.0425 16.9292 -96.8052
rradius 60.569
rwrist 24.6684
rhand 9.84902 1.37784
rfingers 7.12502
rthumb 34.9831 -25.1822
lclavicle -7.98315e-014 -1.41137e-014
lhumerus -57.4454 -26.9875 104.255
lradius 79.6718
lwrist 58.7319
lhand -28.8362 -6.95176
lfingers 7.12502
lthumb -2.19354 23.0167
rfemur -38.6728 6.30903 12.4889
rtibia 40.1973
rfoot -14.0724 -0.672416
rtoes -30.3883
lfemur -23.4495 -9.07608 -19.9461
ltibia 28.8896
lfoot -16.9724 -14.0027
ltoes -10.7792
908
root 6.13579 16.1216 19.5044 12.4825 0.0534303 -0.440104
lowerback 2.84069 4.02944 -1.40012
upperback -6.6352 5.26888 -0.968295
thorax -8.59813 2.64903 -0.783585
lowerneck 22.4847 -12.5335 -28.8726
upperneck -22.455 -19.8237 46.7329
head -0.573666 -13.3079 25.4353
rclavicle 2.1732e-014 2.5842e-015
rhumerus -27.9164 16.9139 -97.1857
rradius 60.3415
rwrist 23.9298
rhand 9.90245 1.26917
rfingers 7.12502
rthumb 35.0338 -25.279
lclavicle 2.1732e-014 2.5842e-015
lhumerus -57.4087 -26.8847 104.173
lradius 79.7545
lwrist 58.7502
lhand -28.7941 -6.96719
lfingers 7.12502
lthumb -2.15287 23.0017
rfemur -38.8185 6.54721 12.2693
rtibia 38.5699
rfoot -13.7244 0.173447
rtoes -30.2666
lfemur -23.0495 -9.08341 -19.9702
ltibia 28.5685
lfoot -17.0449 -14.294
ltoes -10.4304
909
root 6.12052 16.1238 19.5563 12.4294 0.360669 -0.393763
lowerback 2.73717 3.91436 -1.47465
upperback -6.60019 5.11058 -0.965275
thorax -8.50519 2.57709 -0.71275
lowerneck 22.5012 -12.49 -28.8833
upperneck -22.4033 -19.7817 46.7505
head -0.578246 -13.2887 25.4809
rclavicle 3.73521e-014 9.93923e-017
rhumerus -28.7437 16.8731 -97.5535
rradius 60.0614
rwrist 23.2723
rhand 9.90425 1.19108
rfingers 7.12502
rthumb 35.0355 -25.3567
lclavicle 3.73521e-014 9.93923e-017
lhumerus -57.3745 -26.7542 104.091
lradius 79.8307
lwrist 58.751
lhand -28.7753 -6.96729
lfingers 7.12502
lthumb -2.1347 23.0018
rfemur -38.9006 6.72337 12.0813
rtibia 37.0085
rfoot -13.3361 1.19962
rtoes -30.1155
lfemur -22.6628 -9.093 -19.987
ltibia 28.2843
lfoot -17.1353 -14.6168
ltoes -10.0688
